<svg id="レイヤー_1" data-name="レイヤー 1" xmlns="http://www.w3.org/2000/svg" viewBox="0 0 115.45 115.55"><title>Panstarrs</title><path d="M23.38,78.18a28.38,28.38,0,1,0,1.18-10,5.35,5.35,0,1,1-1.18,10ZM54.64,79a5.8,5.8,0,1,1,0,8.2A5.8,5.8,0,0,1,54.64,79ZM43.92,57a4.94,4.94,0,1,1,0,7A4.94,4.94,0,0,1,43.92,57ZM35.71,81.88a4.41,4.41,0,1,1,0,6.24A4.41,4.41,0,0,1,35.71,81.88Z" transform="translate(-6.27 -6.22)"/><path d="M80.56,107.89a52.51,52.51,0,0,0,3.57-4.6c2.12-3.05,4.26-6.12,6.21-9.29l1.19-1.87c.8-1.25,1.58-2.51,2.36-3.76s14.17-24.19,15.59-26.77q1.07-1.94,2.12-3.88l2.08-3.9c1.38-2.61,2.76-5.21,4.09-7.84s2.67-5.26,4-7.92c-1.82,2.33-3.59,4.69-5.36,7l-5.28,7.08-5.24,7.1-5.22,7.1s-19.21,25.83-21,28.11L78.31,96.2c-10.91,13.93-30.1,19.61-45.8,9.74a33.47,33.47,0,0,1-5.81-4.62A33.83,33.83,0,0,1,17,77.75c0-10.75,5-20,13.16-26.71l1.68-1.35,1.7-1.34c2.27-1.79,4.59-3.56,6.91-5.32,1.16-.89,2.33-1.76,3.5-2.64S75.78,16.86,75.78,16.86l7.08-5.28c2.36-1.77,4.72-3.54,7-5.36-2.66,1.29-5.28,2.63-7.91,4s-5.23,2.72-7.84,4.1l-3.9,2.09L66.38,18.5c-2.58,1.42-5.16,2.85-7.72,4.32S53.54,25.74,51,27.25c-1.27.75-13.88,8.44-15.13,9.24s-2.5,1.59-3.74,2.41-2.49,1.62-3.72,2.47l-1.85,1.26-1.84,1.29a41.53,41.53,0,0,0-18,28.51,43.11,43.11,0,0,0-.46,5,45,45,0,0,0,.13,5,43.09,43.09,0,0,0,2,9.84A41,41,0,0,0,10.28,97a43,43,0,0,0,8.47,12.17l.17.16a44.17,44.17,0,0,0,7.73,6.08,43.07,43.07,0,0,0,19,6.25,45,45,0,0,0,5,.13A42.56,42.56,0,0,0,74,113.91,37.85,37.85,0,0,0,80.56,107.89Z" transform="translate(-6.27 -6.22)"/><path d="M52.55,39.7a39.53,39.53,0,0,1,16.37,3.69L100.67,6.62Z" transform="translate(-6.27 -6.22)"/><path d="M121.58,27.53,84.82,59.28A39.53,39.53,0,0,1,88.5,75.65Z" transform="translate(-6.27 -6.22)"/></svg>