<svg id="レイヤー_1" data-name="レイヤー 1" xmlns="http://www.w3.org/2000/svg" viewBox="0 0 264.12 66.25"><defs><style>.cls-1{font-size:15.24px;}.cls-1,.cls-2{font-family:TTNorms-Medium, TT Norms;}.cls-2{font-size:9.24px;}</style></defs><title>Panstarrs_loaded</title><path d="M21.28,8.08A13.38,13.38,0,0,1,26.36,9a12.51,12.51,0,0,1,4,2.6A11.75,11.75,0,0,1,33,15.49,12.44,12.44,0,0,1,33,25a11.73,11.73,0,0,1-2.65,3.87,12.47,12.47,0,0,1-4,2.6,13.36,13.36,0,0,1-5.08.95H12.09V45.94H6.14V8.08Zm-9.19,5.41V27h9.19a6.86,6.86,0,0,0,2.65-.51,6.52,6.52,0,0,0,3.6-3.6,7.09,7.09,0,0,0,0-5.3,6.52,6.52,0,0,0-3.6-3.6,6.88,6.88,0,0,0-2.65-.51Z" transform="translate(-6.14 -8.08)"/><path d="M56.17,45.94v-2.7a10.54,10.54,0,0,1-2.11,1.62A13.32,13.32,0,0,1,51.57,46a9.94,9.94,0,0,1-3.25.49,10.33,10.33,0,0,1-3.7-.65,9.67,9.67,0,0,1-2.92-1.7,7.66,7.66,0,0,1-1.89-2.43,6.27,6.27,0,0,1-.68-2.79,7.45,7.45,0,0,1,2.06-5.38,9.68,9.68,0,0,1,5.52-2.73l9.46-1.62a4.58,4.58,0,0,0-1.49-3.46,5.48,5.48,0,0,0-3.92-1.41,7.63,7.63,0,0,0-3,.54A8.9,8.9,0,0,0,45.67,26,7.78,7.78,0,0,0,44,27.82L40.48,24.3a12.92,12.92,0,0,1,2.6-2.43,15.9,15.9,0,0,1,3.27-1.7,12.07,12.07,0,0,1,4.41-.73,12.46,12.46,0,0,1,4.44.76,10.15,10.15,0,0,1,3.41,2.08,9.55,9.55,0,0,1,2.19,3.08,9.26,9.26,0,0,1,.78,3.81V45.94Zm-7-4.33a6.84,6.84,0,0,0,5.14-1.95A7.75,7.75,0,0,0,56.17,34V33.5l-8.38,1.35A4.36,4.36,0,0,0,45.46,36a3.15,3.15,0,0,0-.92,2.33,2.92,2.92,0,0,0,1.16,2.24A5.13,5.13,0,0,0,49.13,41.61Z" transform="translate(-6.14 -8.08)"/><path d="M74.55,22.68a10.55,10.55,0,0,1,2.11-1.62,13.21,13.21,0,0,1,2.49-1.14,9.9,9.9,0,0,1,3.25-.49,11.35,11.35,0,0,1,4.27.78A9.28,9.28,0,0,1,90,22.47,10.4,10.4,0,0,1,92.16,26a13.6,13.6,0,0,1,.78,4.76V45.94H87.53V30.79a6.38,6.38,0,0,0-1.78-4.68,6,6,0,0,0-4.44-1.81,6.45,6.45,0,0,0-4.92,1.95,7.89,7.89,0,0,0-1.84,5.63V45.94H69.15V20h5.41Z" transform="translate(-6.14 -8.08)"/><path d="M113.49,26.47a9.51,9.51,0,0,0-1.3-1.08,9.11,9.11,0,0,0-1.57-.76,5.69,5.69,0,0,0-2-.32,4.19,4.19,0,0,0-2.81.84,2.44,2.44,0,0,0-1,1.87,2.15,2.15,0,0,0,1,1.87,10.08,10.08,0,0,0,2.46,1.19q1.49.52,3.19,1a14,14,0,0,1,3.19,1.35,7.73,7.73,0,0,1,2.46,2.24,6.31,6.31,0,0,1,1,3.7,7.25,7.25,0,0,1-.68,3.08,7.94,7.94,0,0,1-1.95,2.6,9.26,9.26,0,0,1-3.08,1.79,11.9,11.9,0,0,1-4,.65,12.48,12.48,0,0,1-4.41-.7,12.78,12.78,0,0,1-3.11-1.62,10.73,10.73,0,0,1-2.49-2.27l3.52-3.52a9.51,9.51,0,0,0,3.79,2.76,7.08,7.08,0,0,0,2.7.49,4.87,4.87,0,0,0,3.3-.92,3,3,0,0,0,1-2.33,2.2,2.2,0,0,0-1-1.92,9.52,9.52,0,0,0-2.46-1.16q-1.49-.49-3.19-1A13.94,13.94,0,0,1,102.87,33a7.59,7.59,0,0,1-2.46-2.27,6.34,6.34,0,0,1-1-3.68,6.27,6.27,0,0,1,.68-2.79A7.67,7.67,0,0,1,102,21.79a9.67,9.67,0,0,1,2.92-1.7,10.32,10.32,0,0,1,3.7-.65,11.5,11.5,0,0,1,3.73.54,12.61,12.61,0,0,1,2.6,1.19A11.12,11.12,0,0,1,117,23Z" transform="translate(-6.14 -8.08)"/><path d="M127.29,11.32h4.87V20h5.41v4.87h-5.41V38.31a3.22,3.22,0,0,0,.92,2.38,3.15,3.15,0,0,0,2.33.92,6,6,0,0,0,1-.08,8.23,8.23,0,0,0,.87-.19,4.93,4.93,0,0,0,.87-.27v4.87a7.94,7.94,0,0,1-1.08.27q-.54.11-1.22.19a12.64,12.64,0,0,1-1.49.08,7.44,7.44,0,0,1-5.63-2q-1.95-2-1.95-6.09V24.85h-4.87V20h2.7a2.52,2.52,0,0,0,2-.81,3.54,3.54,0,0,0,.73-2.43Z" transform="translate(-6.14 -8.08)"/><path d="M160,45.94v-2.7a10.55,10.55,0,0,1-2.11,1.62A13.35,13.35,0,0,1,155.41,46a9.94,9.94,0,0,1-3.25.49,10.33,10.33,0,0,1-3.7-.65,9.67,9.67,0,0,1-2.92-1.7,7.66,7.66,0,0,1-1.89-2.43,6.27,6.27,0,0,1-.68-2.79A7.45,7.45,0,0,1,145,33.53a9.68,9.68,0,0,1,5.52-2.73L160,29.17a4.58,4.58,0,0,0-1.49-3.46,5.47,5.47,0,0,0-3.92-1.41,7.63,7.63,0,0,0-3,.54A8.9,8.9,0,0,0,149.51,26a7.79,7.79,0,0,0-1.68,1.78l-3.52-3.52a12.92,12.92,0,0,1,2.6-2.43,15.91,15.91,0,0,1,3.27-1.7,12.07,12.07,0,0,1,4.41-.73,12.45,12.45,0,0,1,4.43.76,10.14,10.14,0,0,1,3.41,2.08,9.55,9.55,0,0,1,2.19,3.08,9.27,9.27,0,0,1,.78,3.81V45.94Zm-7-4.33a6.84,6.84,0,0,0,5.14-1.95A7.75,7.75,0,0,0,160,34V33.5l-8.38,1.35A4.36,4.36,0,0,0,149.3,36a3.15,3.15,0,0,0-.92,2.33,2.92,2.92,0,0,0,1.16,2.24A5.13,5.13,0,0,0,153,41.61Z" transform="translate(-6.14 -8.08)"/><path d="M187.59,24.57a6.2,6.2,0,0,1-.7-.16c-.25,0-.52-.06-.81-.08l-.92,0a6.44,6.44,0,0,0-4.92,1.95,7.88,7.88,0,0,0-1.84,5.63V45.94H173V20h5.41v2.7a10.55,10.55,0,0,1,2.11-1.62A13.21,13.21,0,0,1,183,19.92a9.9,9.9,0,0,1,3.24-.49h1.35Z" transform="translate(-6.14 -8.08)"/><path d="M206.52,24.57a6.2,6.2,0,0,1-.7-.16c-.25,0-.52-.06-.81-.08l-.92,0a6.44,6.44,0,0,0-4.92,1.95,7.88,7.88,0,0,0-1.84,5.63V45.94h-5.41V20h5.41v2.7a10.55,10.55,0,0,1,2.11-1.62,13.21,13.21,0,0,1,2.49-1.14,9.9,9.9,0,0,1,3.24-.49h1.35Z" transform="translate(-6.14 -8.08)"/><path d="M223.83,26.47a9.45,9.45,0,0,0-1.3-1.08,9.1,9.1,0,0,0-1.57-.76,5.68,5.68,0,0,0-2-.32,4.19,4.19,0,0,0-2.81.84,2.44,2.44,0,0,0-1,1.87,2.15,2.15,0,0,0,1,1.87,10.07,10.07,0,0,0,2.46,1.19q1.49.52,3.19,1A14,14,0,0,1,225,32.42a7.73,7.73,0,0,1,2.46,2.24,6.31,6.31,0,0,1,1,3.7,7.26,7.26,0,0,1-.68,3.08A8,8,0,0,1,225.8,44a9.24,9.24,0,0,1-3.08,1.79,11.9,11.9,0,0,1-4,.65,12.49,12.49,0,0,1-4.41-.7,12.8,12.8,0,0,1-3.11-1.62,10.74,10.74,0,0,1-2.49-2.27l3.52-3.52A9.51,9.51,0,0,0,216,41.12a7.09,7.09,0,0,0,2.7.49,4.87,4.87,0,0,0,3.3-.92,3,3,0,0,0,1-2.33,2.2,2.2,0,0,0-1-1.92,9.49,9.49,0,0,0-2.46-1.16q-1.49-.49-3.19-1A14,14,0,0,1,213.2,33a7.6,7.6,0,0,1-2.46-2.27,6.34,6.34,0,0,1-1-3.68,6.27,6.27,0,0,1,.68-2.79,7.66,7.66,0,0,1,1.89-2.43,9.66,9.66,0,0,1,2.92-1.7,10.33,10.33,0,0,1,3.71-.65,11.5,11.5,0,0,1,3.73.54,12.59,12.59,0,0,1,2.6,1.19A11.08,11.08,0,0,1,227.34,23Z" transform="translate(-6.14 -8.08)"/><text class="cls-1" transform="translate(173.15 62.83)">Fully loaded.</text><text class="cls-2" transform="translate(0 62.83)">ver 1.0.0</text><path d="M241.42,37.12a8.32,8.32,0,1,0,.35-2.94,1.57,1.57,0,1,1-.35,2.94Zm9.17.25a1.7,1.7,0,1,1,0,2.4A1.7,1.7,0,0,1,250.58,37.36Zm-3.14-6.46a1.45,1.45,0,1,1,0,2A1.45,1.45,0,0,1,247.44,30.91ZM245,38.2A1.29,1.29,0,1,1,245,40,1.29,1.29,0,0,1,245,38.2Z" transform="translate(-6.14 -8.08)"/><path d="M258.18,45.83a15.4,15.4,0,0,0,1-1.35c.62-.9,1.25-1.8,1.82-2.72l.35-.55.69-1.1c.23-.37,4.15-7.09,4.57-7.85l.62-1.14L267.9,30c.4-.76.81-1.53,1.2-2.3s.78-1.54,1.16-2.32c-.53.68-1.05,1.37-1.57,2.07l-1.55,2.08-1.54,2.08-1.53,2.08s-5.63,7.57-6.16,8.24l-.39.5c-3.2,4.09-8.83,5.75-13.43,2.85a9.82,9.82,0,0,1-1.7-1.36,9.84,9.84,0,0,1,1-14.74l.49-.4.5-.39c.67-.53,1.35-1,2-1.56l1-.77,9.34-6.9,2.08-1.55c.69-.52,1.38-1,2.07-1.57-.78.38-1.55.77-2.32,1.16s-1.53.8-2.3,1.2l-1.14.61-1.14.62c-.76.42-1.51.84-2.26,1.27s-1.5.86-2.25,1.3c-.37.22-4.07,2.47-4.44,2.71l-1.1.71-1.09.72-.54.37-.54.38a12.18,12.18,0,0,0-5.27,8.36,12.64,12.64,0,0,0-.13,1.46,13.2,13.2,0,0,0,0,1.47,12.63,12.63,0,0,0,.59,2.89,12,12,0,0,0,.54,1.37,12.62,12.62,0,0,0,2.48,3.57l0,0A13,13,0,0,0,242.37,48a12.63,12.63,0,0,0,5.56,1.83,13.21,13.21,0,0,0,1.47,0,12.48,12.48,0,0,0,6.85-2.3A11.1,11.1,0,0,0,258.18,45.83Z" transform="translate(-6.14 -8.08)"/><path d="M250,25.83a11.59,11.59,0,0,1,4.8,1.08l9.31-10.78Z" transform="translate(-6.14 -8.08)"/><path d="M270.21,22.26l-10.78,9.31a11.59,11.59,0,0,1,1.08,4.8Z" transform="translate(-6.14 -8.08)"/></svg>