<svg id="レイヤー_1" data-name="レイヤー 1" xmlns="http://www.w3.org/2000/svg" viewBox="0 0 115.36 115.38"><defs><style>.cls-1{fill:none;stroke:#000;stroke-miterlimit:10;stroke-width:0.5px;}</style></defs><title>panstarrs</title><path class="cls-1" d="M47.38,47.68A26.67,26.67,0,1,1,20.76,76a5,5,0,1,0,1.11-9.38A26.68,26.68,0,0,1,47.38,47.68M43.3,64A4.63,4.63,0,1,0,40,62.69,4.63,4.63,0,0,0,43.3,64m10.63,22a5.44,5.44,0,1,0-3.85-1.59,5.44,5.44,0,0,0,3.85,1.59m-18.67.46a4.14,4.14,0,1,0-2.93-1.21,4.14,4.14,0,0,0,2.93,1.21M47.38,46.74A27.62,27.62,0,0,0,21,66.31l-.47,1.54,1.57-.35a4.08,4.08,0,1,1-.89,7.64l-1.44-.7.09,1.6a27.6,27.6,0,1,0,27.56-29.3ZM43.3,63.1A3.7,3.7,0,1,1,45.91,62,3.7,3.7,0,0,1,43.3,63.1Zm10.63,22a4.5,4.5,0,1,1,3.18-1.31A4.5,4.5,0,0,1,53.92,85.12Zm-18.67.46a3.2,3.2,0,1,1,2.26-.94A3.2,3.2,0,0,1,35.25,85.58Z" transform="translate(-3.52 -2.67)"/><path class="cls-1" d="M83.16,8.49c-2.19,1.71-4.4,3.37-6.57,5l-6.64,5S41.12,39.72,40,40.54,37.83,42.19,36.74,43c-2.18,1.65-4.35,3.31-6.48,5l-1.59,1.26L27.09,50.5c-7.63,6.34-12.38,15-12.32,25.09a31.73,31.73,0,0,0,9.13,22.1A31.39,31.39,0,0,0,29.35,102a29.73,29.73,0,0,0,15.94,4.69c10.25,0,20.28-5.24,27-13.79l1.26-1.6c1.67-2.14,19.7-26.37,19.7-26.37l4.9-6.66L103,51.63,108,45c1.66-2.21,3.32-4.42,5-6.57-1.21,2.49-2.46,5-3.75,7.43s-2.54,4.91-3.84,7.35l-2,3.66q-1,1.82-2,3.64c-1.33,2.42-13.89,23.93-14.62,25.11S85.4,88,84.65,89.14l-1.1,1.69c-1.82,3-3.84,5.85-5.82,8.71a49.24,49.24,0,0,1-3.35,4.31,35.5,35.5,0,0,1-6.17,5.63,40.16,40.16,0,0,1-21.9,7.36H45.05q-1.73,0-3.44-.14a40.4,40.4,0,0,1-17.82-5.86,41.43,41.43,0,0,1-7.25-5.7h0l-.16-.15A40.33,40.33,0,0,1,8.47,93.64a38.46,38.46,0,0,1-1.74-4.4A40.42,40.42,0,0,1,4.86,80a42.21,42.21,0,0,1-.12-4.69,40.44,40.44,0,0,1,.43-4.69A38.46,38.46,0,0,1,22.05,43.89l1.73-1.21,1.74-1.18c1.15-.8,2.33-1.55,3.49-2.32s2.34-1.51,3.51-2.26,13-8,14.15-8.7c2.38-1.42,4.78-2.81,7.18-4.16s4.81-2.72,7.24-4.05l3.64-2,3.66-2c2.45-1.29,4.89-2.6,7.35-3.85l7.42-3.75m7.56-4.69-8,3.88c-2.48,1.2-5,2.51-7.36,3.69h-.08c-2.32,1.17-4.69,2.41-6.9,3.61l-.46.24-3.66,2-3.65,2c-2.15,1.18-4.69,2.59-7.25,4.06-2,1.13-4.6,2.62-7.19,4.16-1.29.76-13.13,8-14.22,8.69l-.84.54c-.94.57-1.79,1.14-2.67,1.74l-1,.66c-.82.53-1.67,1.1-2.49,1.67l-1.75,1.17L21.48,43.1h0A38.9,38.9,0,0,0,6.74,61.21a41,41,0,0,0-2.51,9.25,41.57,41.57,0,0,0-.44,4.78,43.31,43.31,0,0,0,.12,4.81A41.35,41.35,0,0,0,5.79,89.5,39.52,39.52,0,0,0,7.57,94a41.27,41.27,0,0,0,8.14,11.68l.17.16h0a42.38,42.38,0,0,0,7.41,5.83,41.34,41.34,0,0,0,18.21,6c1.16.09,2.35.14,3.53.14h1.28a40.25,40.25,0,0,0,4.79-.44,40.73,40.73,0,0,0,17.63-7.1,36.21,36.21,0,0,0,6.33-5.8,49.82,49.82,0,0,0,3.4-4.4l.26-.38c1.88-2.71,3.84-5.52,5.63-8.39l1.11-1.74c.63-.94,1.24-2,1.88-3l.37-.58c.87-1.43,13.38-22.84,14.65-25.16q1-1.82,2-3.64l2-3.66.23-.43c1.2-2.27,2.44-4.61,3.62-6.94l.07-.13c1.21-2.38,2.47-4.86,3.65-7.31l3.8-8-5.41,6.93c-1.68,2.15-3.34,4.36-4.94,6.49l-.09.12-5,6.65-5,6.71-4.9,6.66c-.18.23-18,24.24-19.7,26.35l-1.26,1.6c-6.57,8.44-16.4,13.43-26.26,13.43a28.64,28.64,0,0,1-15.42-4.51A30.16,30.16,0,0,1,15.71,75.59c0-9.29,4.23-17.92,12-24.32L29.28,50l1.59-1.26c2.15-1.69,4.38-3.4,6.47-5,.82-.63,1.63-1.24,2.45-1.88l.83-.62c1.08-.82,29.58-21.85,29.87-22.07l6.65-5c2.18-1.62,4.42-3.3,6.59-5l7-5.43Z" transform="translate(-3.52 -2.67)"/><path class="cls-1" d="M93.25,8.87,63.47,43.36A37.12,37.12,0,0,0,48.34,39.9h-.22l45.12-31M98.72,4l-6,4.13-45.11,31-2.53,1.74h3.27A36.5,36.5,0,0,1,63,44.22l.66.33.48-.55L94,9.49Z" transform="translate(-3.52 -2.67)"/><path class="cls-1" d="M112.86,28.48l-31,45.13a37.08,37.08,0,0,0-3.46-15.35l34.48-29.78m4.9-5.47-5.52,4.76L77.77,57.56l-.55.48.33.66A36.45,36.45,0,0,1,80.9,73.61v3.06l1.74-2.52,31-45.12,4.13-6Z" transform="translate(-3.52 -2.67)"/></svg>